# xmcd CD database file
#
# Track frame offsets:
#	150
#	24486
#	50995
#	70615
#	98679
#	120795
#	138911
#	158119
#	181279
#	206550
#	231760
#	271243
#	291367
#	322619
#
# Disc length: 4684 seconds
#
# Revision: 1
# Processed by: cddbd v1.5.1PL0 Copyright (c) Steve Scherf et al.
# Submitted via: CDex 1.50beta10
#
DISCID=b9124a0e
DTITLE=Bill Deraime - Live au New Morning
DYEAR=2005
DGENRE=Blues
TTITLE0=Quelque part
TTITLE1=Je me sentais mal
TTITLE2=Maniaco dépressif
TTITLE3=Esclaves ou exclus
TTITLE4=Babylone tu déconnes
TTITLE5=Sur le bord de la route
TTITLE6=Tout en haut
TTITLE7=Des champs de rédemption
TTITLE8=Chaque matin
TTITLE9=Veux-tu de ma médecine
TTITLE10=Entre deux eaux
TTITLE11=Je rêve
TTITLE12=Laisse couler
TTITLE13=Un dernier blues
EXTD=Bill DERAIME YEAR: 2005
EXTT0=
EXTT1=
EXTT2=
EXTT3=
EXTT4=
EXTT5=
EXTT6=
EXTT7=
EXTT8=
EXTT9=
EXTT10=
EXTT11=
EXTT12=
EXTT13=
PLAYORDER=
